<svg width="93" height="86" viewBox="0 0 93 86" fill="none" xmlns="http://www.w3.org/2000/svg">
<g clip-path="url(#clip0_21_27)" filter="url(#filter0_d_21_27)">
<path d="M84.1756 64.7451V61.377C84.1756 58.3083 81.7568 55.8007 78.7263 55.6431V28.1786H82.0784C83.2364 28.1786 84.1756 27.2397 84.1756 26.0814V17.0618C84.1756 16.0771 83.4905 15.225 82.5289 15.0135L46.9506 7.18796C46.6534 7.1226 46.3462 7.1226 46.0494 7.18796L10.4711 15.0138C9.50947 15.2253 8.82437 16.0775 8.82437 17.0621V26.0814C8.82437 27.2397 9.76358 28.1786 10.9216 28.1786H14.2737V55.6434C11.2432 55.8007 8.82437 58.3083 8.82437 61.3773V64.7455C6.08571 65.2387 4 67.6341 4 70.5126V75.7637C4 76.9221 4.93922 77.861 6.09725 77.861H10.9216H82.0784H86.9027C88.0608 77.861 89 76.9221 89 75.7637V70.5126C89 67.6341 86.9139 65.2387 84.1756 64.7451ZM13.0189 61.377C13.0189 60.5199 13.7162 59.8226 14.5733 59.8226H78.4267C79.2838 59.8226 79.9811 60.5199 79.9811 61.377V64.6469H13.0189V61.377ZM24.4384 55.6281H18.4682V28.79H24.4384V55.6281ZM47.6692 28.1786V55.6281H45.3311V28.1786H47.6692ZM57.8342 55.6281H51.8637V28.79H57.8342V55.6281ZM74.5318 55.6281H68.5616V28.79H74.5318V55.6281ZM41.1363 28.79V55.6281H35.1658V28.79H41.1363ZM8.19449 70.5126C8.19449 69.5912 8.94426 68.8418 9.8653 68.8418H10.9213H13.0185H79.9808H82.078H83.134C84.0554 68.8418 84.8048 69.5915 84.8048 70.5126V73.6665H79.9804H13.0189H8.19449V70.5126ZM64.3671 55.6281H62.0287V28.1786H64.3671V55.6281ZM13.0189 18.748L46.5 11.3835L79.9811 18.748V23.9838H13.0189V18.748ZM30.9713 28.1786V55.6281H28.6329V28.1786H30.9713Z" fill="#FFBA08"/>
</g>
<defs>
<filter id="filter0_d_21_27" x="0" y="0" width="93" height="93" filterUnits="userSpaceOnUse" color-interpolation-filters="sRGB">
<feFlood flood-opacity="0" result="BackgroundImageFix"/>
<feColorMatrix in="SourceAlpha" type="matrix" values="0 0 0 0 0 0 0 0 0 0 0 0 0 0 0 0 0 0 127 0" result="hardAlpha"/>
<feOffset dy="4"/>
<feGaussianBlur stdDeviation="2"/>
<feComposite in2="hardAlpha" operator="out"/>
<feColorMatrix type="matrix" values="0 0 0 0 0 0 0 0 0 0 0 0 0 0 0 0 0 0 0.25 0"/>
<feBlend mode="normal" in2="BackgroundImageFix" result="effect1_dropShadow_21_27"/>
<feBlend mode="normal" in="SourceGraphic" in2="effect1_dropShadow_21_27" result="shape"/>
</filter>
<clipPath id="clip0_21_27">
<rect width="85" height="85" fill="white" transform="translate(4)"/>
</clipPath>
</defs>
</svg>
